<?xml version="1.0" encoding="UTF-8"?>
<svg id="logo-color" xmlns="http://www.w3.org/2000/svg" viewBox="0 0 348.14 259.93">
  <defs>
    <style>
      .cls-1 {
        fill: #d71080;
      }

      .cls-1, .cls-2 {
        stroke-width: 0px;
      }

      .cls-2 {
        fill: #333;
      }
    </style>
  </defs>
  <rect class="cls-2" x="109.76" width="18" height="228"/>
  <path class="cls-2" d="m220.25,128.2l17.48-26s-15.49-45.54-62.99-41.97c0,0-24.25,1.82-43.49,27.32-19.25,25.5-24.11,111.87,26.32,137.56l11.43-17.68s-22.25-3.79-31.38-30.08c-9.13-26.3-5.98-59.46,4.7-75.01,10.68-15.54,22.2-22.89,39.66-20.67,18.21,2.32,32.28,17.92,38.27,46.52Z"/>
  <polyline class="cls-1" points="228.55 122.81 271 60.23 275.5 135.72 348.14 156.75 277.74 184.36 280.17 259.93 232.16 201.52 161.04 227.18 228.55 122.81"/>
  <path class="cls-2" d="m23.27,105.66l8.43-39.57h8.68l-8.52,39.57h28.22l8.51-39.57h8.44l-8.27,39.57h14.76v6.32h-16.14l-5.92,28.06h22.06v6.33h-23.44l-7.95,36.81h-8.59l7.95-36.81h-28.22l-8.02,36.81H6.64l8.11-36.65H0v-6.49h15.97l5.92-28.06H0v-6.32h23.27Zm1.3,34.38h28.21l6.01-28.06h-28.22l-6,28.06Z"/>
</svg>